<?xml version="1.0" encoding="utf-8"?>
<!-- Generator: Adobe Illustrator 23.0.6, SVG Export Plug-In . SVG Version: 6.00 Build 0)  -->
<svg version="1.1" id="Layer_1" xmlns="http://www.w3.org/2000/svg" xmlns:xlink="http://www.w3.org/1999/xlink" x="0px" y="0px"
	 viewBox="0 0 14 14" style="enable-background:new 0 0 14 14;" xml:space="preserve">
<style type="text/css">
	.st0{fill:#FFFFFF;}
</style>
<g>
	<path class="st1" d="M0,0v14h14V0H0z M13,12h-1v1H1V5h12V12z M13,4H1V1h12V4z"/>
	<rect x="7" y="2" class="st1" width="1" height="1"/>
	<rect x="9" y="2" class="st1" width="1" height="1"/>
	<rect x="11" y="2" class="st1" width="1" height="1"/>
	<path class="st1" d="M11.22,11C11.7,10.47,12,9.77,12,9c0-1.66-1.34-3-3-3S6,7.34,6,9s1.34,3,3,3c0.77,0,1.47-0.3,2-0.78V12h1v-1
		H11.22z M9,11c-1.1,0-2-0.9-2-2s0.9-2,2-2s2,0.9,2,2S10.1,11,9,11z"/>
</g>
</svg>
