<?xml version="1.0" encoding="utf-8"?>
<!-- Generator: Adobe Illustrator 23.0.6, SVG Export Plug-In . SVG Version: 6.00 Build 0)  -->
<svg version="1.1" id="Layer_1" xmlns="http://www.w3.org/2000/svg" xmlns:xlink="http://www.w3.org/1999/xlink" x="0px" y="0px"
	 viewBox="0 0 14 14" style="enable-background:new 0 0 14 14;" xml:space="preserve">
<style type="text/css">
	.st0{fill:#FFFFFF;}
</style>
<path class="st1" d="M12.3,7.79c0.11-0.73,0.07-1.45-0.11-2.14l1.62-0.77l-0.88-1.85L11.31,3.8c-0.42-0.57-0.96-1.06-1.59-1.43
	l0.6-1.7L8.4,0L7.8,1.7C7.07,1.59,6.34,1.63,5.66,1.81L4.88,0.18L3.04,1.06l0.77,1.62c-0.57,0.43-1.06,0.96-1.43,1.6l-1.7-0.6L0,5.6
	l1.7,0.6C1.59,6.93,1.63,7.66,1.81,8.34L0.18,9.12l0.88,1.85l1.62-0.77c0.42,0.57,0.96,1.06,1.59,1.43l-0.6,1.7L5.6,14l0.6-1.7
	c0.73,0.11,1.45,0.07,2.14-0.11l0.77,1.62l1.85-0.88l-0.77-1.62c0.57-0.42,1.06-0.96,1.43-1.59l1.7,0.6L14,8.4L12.3,7.79z M7,10.63
	c-1.93,0-3.5-1.57-3.5-3.5s1.57-3.5,3.5-3.5s3.5,1.57,3.5,3.5C10.5,9.07,8.93,10.63,7,10.63z"/>
</svg>
