<svg xmlns="http://www.w3.org/2000/svg" id="Layer_1" x="0" y="0" enable-background="new 0 0 265 65" version="1.1" viewBox="0 0 265 65" xml:space="preserve">
    <style>
        .st1{fill:#fff}
    </style>
    <path fill="#759667" d="M56.39 18.29L31.82 4.15 28.31 6.18 46.01 16.36 46.04 36.86 28.3 47.14 10.53 36.92 10.5 16.5 7.29 18.36 7.33 46.71 31.9 60.85 56.43 46.64z"/>
    <path d="M83.77 44.89l-1.92-4.86h-9.58l-1.82 4.86h-6.5l9.49-22.63c.54-1.28 1.79-2.12 3.18-2.12h3.51l10.28 24.75h-6.64zm-6.64-18.14l-3.15 8.49h6.22l-3.07-8.49zM99.15 25.25V44.9h-5.98V25.25h-6.99v-5.1h19.96v5.1h-6.99zM121.21 25.25V44.9h-5.98V25.25h-6.99v-5.1h19.96v5.1h-6.99zM155.32 32.41c0 1.96-.34 3.75-1.01 5.37-.68 1.62-1.61 3.01-2.81 4.16-1.2 1.15-2.63 2.04-4.28 2.67-1.66.63-3.45.94-5.38.94-1.94 0-3.72-.31-5.37-.94-1.64-.63-3.06-1.52-4.26-2.67-1.2-1.15-2.14-2.54-2.81-4.16-.68-1.62-1.01-3.41-1.01-5.37 0-1.98.34-3.77 1.01-5.37.68-1.6 1.61-2.95 2.81-4.07s2.62-1.98 4.26-2.59c1.64-.61 3.43-.91 5.37-.91 1.93 0 3.73.3 5.38.91 1.65.61 3.08 1.47 4.28 2.59s2.14 2.48 2.81 4.07c.68 1.6 1.01 3.39 1.01 5.37zm-6.39 0c0-1.07-.17-2.07-.52-3.01s-.83-1.73-1.45-2.39c-.62-.66-1.36-1.19-2.24-1.57-.87-.38-1.84-.58-2.88-.58-1.05 0-2 .19-2.87.58-.86.38-1.61.91-2.24 1.57s-1.11 1.46-1.45 2.39c-.34.93-.51 1.93-.51 3.01 0 1.12.17 2.15.52 3.09s.83 1.75 1.45 2.43c.62.68 1.36 1.21 2.22 1.59.86.38 1.82.58 2.87.58s2-.19 2.87-.58c.86-.38 1.61-.91 2.24-1.59.63-.68 1.12-1.49 1.47-2.43s.52-1.97.52-3.09zM156.16 20.14h3.88l7.27 20.13h.07l7.55-20.13h3.67l-9.75 24.75h-3.15l-9.54-24.75zM180.56 39.72c.61.91 1.38 1.58 2.32 2.01.94.43 1.92.65 2.92.65.56 0 1.13-.09 1.71-.26s1.11-.44 1.59-.79c.48-.35.87-.78 1.17-1.29.3-.51.45-1.11.45-1.78 0-.96-.3-1.68-.91-2.18s-1.36-.92-2.25-1.26c-.9-.34-1.88-.66-2.94-.98-1.06-.31-2.04-.75-2.94-1.31-.9-.56-1.65-1.31-2.25-2.25s-.91-2.22-.91-3.83c0-.72.16-1.49.47-2.31.31-.82.81-1.56 1.49-2.24.68-.68 1.54-1.24 2.6-1.7 1.06-.45 2.34-.68 3.83-.68 1.35 0 2.65.19 3.88.56 1.23.37 2.32 1.13 3.25 2.27l-2.73 2.48c-.42-.65-1.01-1.18-1.78-1.57-.77-.4-1.64-.59-2.62-.59-.93 0-1.71.12-2.32.37-.62.24-1.11.56-1.49.94-.37.38-.64.8-.79 1.24-.15.44-.23.85-.23 1.22 0 1.05.3 1.85.91 2.41.61.56 1.36 1.01 2.25 1.36.9.35 1.88.66 2.94.94 1.06.28 2.04.67 2.94 1.17.9.5 1.65 1.18 2.25 2.03s.91 2.02.91 3.51c0 1.19-.23 2.26-.68 3.22-.45.96-1.07 1.76-1.84 2.41-.77.65-1.68 1.15-2.73 1.5-1.05.35-2.17.52-3.36.52-1.58 0-3.09-.28-4.51-.84-1.42-.56-2.55-1.42-3.39-2.59l2.79-2.36zM205.28 20.14h3.04l10.59 24.75H215l-2.48-6.12h-11.78l-2.45 6.12h-3.92l10.91-24.75zm6.01 15.7l-4.61-11.36h-.07l-4.68 11.36h9.36z" class="st1"/>
    <path d="M228.14 20.14h3.04l10.59 24.75h-3.92l-2.48-6.12h-11.78l-2.45 6.12h-3.92l10.92-24.75zm6.01 15.7l-4.61-11.36h-.07l-4.68 11.36h9.36zM243.97 39.72c.61.91 1.38 1.58 2.32 2.01.94.43 1.92.65 2.92.65.56 0 1.13-.09 1.71-.26s1.11-.44 1.59-.79c.48-.35.87-.78 1.17-1.29.3-.51.45-1.11.45-1.78 0-.96-.3-1.68-.91-2.18s-1.36-.92-2.25-1.26c-.9-.34-1.88-.66-2.94-.98-1.06-.31-2.04-.75-2.94-1.31-.9-.56-1.65-1.31-2.25-2.25s-.91-2.22-.91-3.83c0-.72.16-1.49.47-2.31.31-.82.81-1.56 1.49-2.24.68-.68 1.54-1.24 2.6-1.7 1.06-.45 2.34-.68 3.83-.68 1.35 0 2.65.19 3.88.56 1.23.37 2.32 1.13 3.25 2.27l-2.73 2.48c-.42-.65-1.01-1.18-1.78-1.57-.77-.4-1.64-.59-2.62-.59-.93 0-1.71.12-2.32.37-.62.24-1.11.56-1.49.94-.37.38-.64.8-.79 1.24-.15.44-.23.85-.23 1.22 0 1.05.3 1.85.91 2.41.61.56 1.36 1.01 2.25 1.36.9.35 1.88.66 2.94.94 1.06.28 2.04.67 2.94 1.17.9.5 1.65 1.18 2.25 2.03s.91 2.02.91 3.51c0 1.19-.23 2.26-.68 3.22-.45.96-1.07 1.76-1.84 2.41-.77.65-1.68 1.15-2.73 1.5-1.05.35-2.17.52-3.36.52-1.58 0-3.09-.28-4.51-.84-1.42-.56-2.55-1.42-3.39-2.59l2.79-2.36z" class="st1"/>
    <g>
        <path d="M30.26 37.31h-5.4L16.4 14.95h6.06l5.18 15.85h.13l4.49-13.84c.39-1.2 1.5-2.01 2.76-2.01h3.86l-8.62 22.36z" class="st1"/>
    </g>
</svg>
